<svg width="20" height="19" viewBox="0 0 20 19" fill="none" xmlns="http://www.w3.org/2000/svg">
<path d="M19.773 8.74207L11.6327 0.625234C11.6223 0.614786 11.6115 0.604648 11.6005 0.594819C10.7116 -0.195764 9.36843 -0.198589 8.47616 0.58828C8.46507 0.59807 8.45429 0.608169 8.44378 0.61854L0.22937 8.73971C-0.0760201 9.04169 -0.0765279 9.53169 0.228277 9.83421C0.53312 10.1367 1.02777 10.1372 1.33312 9.83529L1.95312 9.22232V15.9044C1.95312 17.6113 3.35499 19 5.07812 19H7.89062C8.3221 19 8.67187 18.6535 8.67187 18.2261V11.9188H11.4062V18.2261C11.4062 18.6535 11.756 19 12.1875 19H14.9219C16.645 19 18.0469 17.6113 18.0469 15.9044C18.0469 15.4769 17.6971 15.1305 17.2656 15.1305C16.8341 15.1305 16.4844 15.4769 16.4844 15.9044C16.4844 16.7578 15.7834 17.4522 14.9219 17.4522H12.9687V11.1449C12.9687 10.7174 12.619 10.371 12.1875 10.371H7.89062C7.45913 10.371 7.10937 10.7174 7.10937 11.1449V17.4522H5.07812C4.21656 17.4522 3.51562 16.7578 3.51562 15.9044V7.70098C3.51562 7.69324 3.5155 7.68554 3.51527 7.67788L9.52913 1.73231C9.82183 1.48609 10.2511 1.48702 10.5427 1.73443L16.4844 7.65907V12.0348C16.4844 12.4623 16.8341 12.8088 17.2656 12.8088C17.6971 12.8088 18.0469 12.4623 18.0469 12.0348V9.21706L18.6645 9.83297C18.8172 9.98524 19.0179 10.0614 19.2187 10.0614C19.4178 10.0614 19.617 9.98647 19.7694 9.83653C20.0755 9.53529 20.0771 9.04529 19.773 8.74207Z" fill="#006BA5"/>
</svg>
